<?xml version="1.0" standalone="no"?>
<!DOCTYPE svg PUBLIC "-//W3C//DTD SVG 20010904//EN"
 "http://www.w3.org/TR/2001/REC-SVG-20010904/DTD/svg10.dtd">
<svg version="1.0" xmlns="http://www.w3.org/2000/svg"
 width="260.000000pt" height="260.000000pt" viewBox="0 0 260.000000 260.000000"
 preserveAspectRatio="xMidYMid meet">
<metadata>
Created by potrace 1.14, written by Peter Selinger 2001-2017
</metadata>
<g transform="translate(0.000000,260.000000) scale(0.100000,-0.100000)"
fill="#000000" stroke="none">
<path d="M1690 2484 c-14 -37 -15 -34 40 -334 28 -151 50 -288 50 -305 0 -56
-12 -61 -170 -74 -264 -22 -463 -76 -695 -192 -347 -172 -585 -413 -687 -697
-14 -40 -22 -91 -25 -172 -7 -173 4 -207 144 -425 144 -224 160 -245 182 -245
33 0 49 34 99 212 139 487 316 834 541 1059 155 155 305 235 478 254 l61 7 11
-34 c9 -28 4 -82 -34 -325 -53 -343 -56 -413 -21 -413 7 0 32 24 55 53 146
180 471 503 626 622 78 60 85 70 85 122 0 41 -6 50 -123 181 -252 280 -434
504 -546 670 -23 34 -46 62 -52 62 -5 0 -14 -12 -19 -26z"/>
</g>
</svg>
