<svg id="Layer_1" data-name="Layer 1" xmlns="http://www.w3.org/2000/svg" width="69.69" height="30.81" viewBox="0 0 69.69 30.81"><defs><style>.cls-1{fill:#426573;}.cls-2{fill:#269dd8;}.cls-3{fill:#d2e2a1;}</style></defs><title>monday</title><path class="cls-1" d="M4.28,11.8s-2.37-1.63-.4-5.47a5,5,0,0,1,6.59-2.56A5.43,5.43,0,0,1,12.25,5.7a7.3,7.3,0,0,1,4.41-3.37c2.84-.56,5.87,2.47,5.87,2.47s.82-2.1,4.07-2.41A4.46,4.46,0,0,1,31.06,4.3,4.18,4.18,0,0,1,34.38,2c2.53-.25,5,2.37,5,2.37A4.32,4.32,0,0,1,42.91,2.2a5.14,5.14,0,0,1,4.22,1.72A3.86,3.86,0,0,1,50.6,2.27a3,3,0,0,1,2.81,1.87,4.55,4.55,0,0,1,3.28-1.4A5.22,5.22,0,0,1,60.1,4.58s2.9-2.19,5-.72A5.78,5.78,0,0,1,67.25,8.8,2.24,2.24,0,0,1,66.6,10a5.55,5.55,0,0,1,1,4.28,9.82,9.82,0,0,1-2.06,3.9,4.35,4.35,0,0,1-.81,5.28c-2.5,2.47-4.16,1.32-4.16,1.32s-.93,3.12-3.47,3.43a5,5,0,0,1-4.12-1.5,6.11,6.11,0,0,1-4.56,1.88c-2.75-.16-3.28-1.44-3.28-1.44a8,8,0,0,1-4.38,1.25,5,5,0,0,1-3.41-1.5s-.68,1.53-3.56,1.81-3.69-1.5-3.69-1.5a3.5,3.5,0,0,1-3.12,1.6,5.82,5.82,0,0,1-3.53-2.28,4.85,4.85,0,0,1-4,2A5.53,5.53,0,0,1,15,26.67s-2,2.85-4.81,1.88S6.66,26.3,6.66,26.3s-3-.53-3.94-3a3.08,3.08,0,0,1,.94-3.75A3.68,3.68,0,0,1,2,16.11,6.52,6.52,0,0,1,4.28,11.8Z"/><path class="cls-2" d="M6.61,11.89a3.22,3.22,0,0,1-1.7-3.44C5.38,6.06,7.47,4.36,9.13,5s2.57,2.58,2.95,2.81a.89.89,0,0,0,.92,0c.05-.08,1.47-3.09,3.31-3.73a4.21,4.21,0,0,1,4.46,1.22c1,1,1.31,1.76,1.47,1.84a4.61,4.61,0,0,0,1.17-.17S24,4.42,26.25,4A3.65,3.65,0,0,1,30,5.58c.24.42.6.94.72,1a6,6,0,0,0,1.3.08c0-.08.4-2.52,2.51-2.87s3.49,1.87,3.49,1.87a3.44,3.44,0,0,0,.56.83,5.11,5.11,0,0,0,1.22.12c.05,0,1.27-2.76,3.34-2.92s3.28,2.17,3.47,2.49.24.51.39.56a1.74,1.74,0,0,0,.82-.06c0-.08.43-2.24,1.87-2.63S52,5,52.31,5.7s.3,1.69.5,1.83S54,7.8,54,7.69,54.28,5,55.5,4.45s2.77.52,3.13,1.19.39,1.1.47,1.16a7.53,7.53,0,0,0,1,.22,4.58,4.58,0,0,1,2.66-2c1.67-.32,2.52,1.36,2.83,2.18a2.45,2.45,0,0,1,.08,1.51A9.65,9.65,0,0,0,64,9.69c-.28.3.13.48.28.61s2.33,1.56,1.53,3.9-1.87,2.52-2,2.57a11.12,11.12,0,0,0-1.5.92,3.7,3.7,0,0,0,.42,1.11c.11,0,2.17.42,1.45,2.29s-2.89,2.57-3.65,2-.74-.89-1.13-.76-.78.75-.78.75a2.42,2.42,0,0,1,.17,1.79,2.81,2.81,0,0,1-3.34,1.49A4.6,4.6,0,0,1,53.24,24a2.63,2.63,0,0,0-1.14.26,3.53,3.53,0,0,1-3.24,2.59,3,3,0,0,1-3.12-2.06c-.08-.08-.88-.14-.93,0a3.46,3.46,0,0,1-3.18,2c-2.47.19-3.25-2.14-3.46-2.23s-1.47-.18-1.53,0a3.78,3.78,0,0,1-2.87,2.37,2.64,2.64,0,0,1-2.71-1.72c-.09-.06-1.71-.07-1.81.13s-1.44,2.06-3.2,1.26a7,7,0,0,1-2.55-2.42c-.26-.09-1.3,0-1.37.41a2.88,2.88,0,0,1-3.07,2.09,4.37,4.37,0,0,1-3.5-1.92c-.15-.09-1.46-.05-1.59.16a3.07,3.07,0,0,1-3.11,1.7c-2-.36-2.37-1.17-2.37-1.17a2.76,2.76,0,0,0,.06-1.33.7.7,0,0,0-.81-.39,2,2,0,0,1-2.43.47c-1.51-.72-1-3.38-.62-3.83s1.66-.33,1.73-.48.1-1.52-.14-1.61-2,.17-2.5-1.49.89-3.42,1.69-3.56,1.19,0,1.25-.17A2.09,2.09,0,0,0,6.61,11.89Z"/><path class="cls-3" d="M16.8,8.5c-.13,0-3.55,4-3.61,4.08s-2.74-3-3-3.16S9.08,9.69,9,9.81s-.37,11.88-.31,11.88a9.57,9.57,0,0,0,1.78.08c.08-.11.11-8.88.19-9s2.48,2.11,2.75,2.13,3.23-3.69,3.28-3.6.12,9.8.12,9.93,1.68.07,1.75-.15-.23-11.7-.25-11.95S16.92,8.49,16.8,8.5Zm5.36,3.72c-2.5,1.23-2.39,4.3-1.55,6.11a3.11,3.11,0,0,0,4.55,1c1.17-1,1.56-4.1.89-5.75A2.9,2.9,0,0,0,22.16,12.22Zm2.48,3.89c-.12,1.8-1.7,2.44-2.47,1.47s-.48-3.59.91-4.09C23.85,13.21,24.77,14.31,24.64,16.11ZM33.2,9.53c-.07.14-.14,7.72-.15,7.81s-4.64-8.06-4.77-8.07a2,2,0,0,0-.84.64c-.11.2-.14,11.33,0,11.61s1.74.28,1.82.06-.07-6.69-.07-6.69,3.61,6.19,4,6.42a1.72,1.72,0,0,0,1.71-.37c.15-.38.25-11.88.17-12S33.28,9.39,33.2,9.53Zm10,.52c-1.72-1.64-5.7,0-5.92.25s0,5.65,0,7.7.14,2.7.38,2.81a4.54,4.54,0,0,0,2.23,0c.71-.27,3.77-2,4.56-4.18A6.22,6.22,0,0,0,43.17,10.05Zm-.56,6.29a6.27,6.27,0,0,1-3.45,2.5A65.64,65.64,0,0,1,39,11.7s2.38-1.14,3.24-.06A5.17,5.17,0,0,1,42.61,16.34ZM47.31,10c-.18.21-3.18,11-3,11.24a3.46,3.46,0,0,0,1.64.17c.11-.08.67-2.95.73-3a27.33,27.33,0,0,1,3.13-.09c.06,0,.8,2.42.9,2.5s1.33-.21,1.46-.68S49.61,9.63,49.5,9.42,47.5,9.75,47.31,10Zm2.32,6.63a20.32,20.32,0,0,1-2.46-.16,19.66,19.66,0,0,1,1.33-4.15A23.78,23.78,0,0,1,49.63,16.58Zm8.25-6.81a26.1,26.1,0,0,0-1.14,3.14c0,.09-4.25-3.13-4.38-3.14s-1.49,1-1.44,1.18,4.77,4,4.77,4.18S52.92,21.77,53,21.91a6.16,6.16,0,0,0,1.82.39c.09-.05,4.76-12.08,4.75-12.21A5,5,0,0,0,57.88,9.77Z"/><path class="cls-1" d="M12.69,19.2A21.65,21.65,0,0,0,14.92,22c.14.07.38-.46.38-.66a17.84,17.84,0,0,0-1.77-2.61A1.49,1.49,0,0,0,12.69,19.2Zm-.45.83a2,2,0,0,0-.71.74,23.36,23.36,0,0,0,2.6,2.48,2.12,2.12,0,0,0,.56-.67A21,21,0,0,0,12.24,20ZM18.38,6.59c.06,0,.07-.26,0-.39s-.47-.45-1.33-.29a2.1,2.1,0,0,0-1.38.75,1,1,0,0,0,.35.47c.22.11.61-.32,1.15-.46A6.29,6.29,0,0,1,18.38,6.59ZM28,6.84a3.39,3.39,0,0,0,.28-.39c0-.07-.39-.29-1.26-.37a1.54,1.54,0,0,0-1.21.25c-.08,0,.07.75.14.8a2.24,2.24,0,0,0,.74-.19A5.48,5.48,0,0,1,28,6.84ZM35,6a2.64,2.64,0,0,0-1.15.45,1.32,1.32,0,0,0,.23.69,5.18,5.18,0,0,0,1.08-.38,6.19,6.19,0,0,1,1.09-.22c.2,0,.14-.2,0-.42S35.72,5.83,35,6Zm7.56.54a2.84,2.84,0,0,0-.07.75s.25,0,.84-.06a7,7,0,0,0,.87,0c.21-.06.22-.53.11-.67A6,6,0,0,0,42.56,6.53Zm7.14-.28a.48.48,0,0,0-.4.75.64.64,0,0,0,.9-.14C50.38,6.55,50.11,6.25,49.7,6.25Zm9.82,10.61a2.78,2.78,0,0,0-1,.52,27.81,27.81,0,0,0,2,2.84s.44-.41.5-.5A17.73,17.73,0,0,0,59.52,16.86Zm-2.28,2c0,.1,1.86,2.27,1.9,2.3a2,2,0,0,0,.78-.45,18.07,18.07,0,0,0-1.87-2.46A2.74,2.74,0,0,0,57.24,18.89Zm-9,5.78c-.63-.06-.74-.28-.82-.25a1.1,1.1,0,0,0-.21.67c0,.08.23.21.86.33a1.77,1.77,0,0,0,1.14-.09c.06,0,0-.49,0-.63S48.89,24.74,48.27,24.67Zm-7.61-1c-.22.08.06.76.17.84s.62-.06,1-.2.53-.8.39-.89A6,6,0,0,0,40.66,23.69Zm-7.24.39a10.93,10.93,0,0,1-1.31.05c-.11,0-.11.76,0,.87s.3,0,.89,0a4.08,4.08,0,0,0,1.44-.28c.12-.08.09-.69.09-.73A6.35,6.35,0,0,0,33.42,24.08Zm-6.17-.17a1.46,1.46,0,0,1-.81-.25c-.11,0-.3.79.16.95a3.19,3.19,0,0,0,1.4.08,1.3,1.3,0,0,0,.39-.7C28.38,23.86,27.8,23.92,27.25,23.91Zm-7.48-.13c-.13,0-.55.36-1,.42s-1-.29-1-.28-.35.55-.29.71a2,2,0,0,0,1.46.29A1.58,1.58,0,0,0,20,24.17C20.11,24.05,19.89,23.83,19.77,23.78Z"/></svg>