<svg id="Layer_1" data-name="Layer 1" xmlns="http://www.w3.org/2000/svg" width="73" height="36.88" viewBox="0 0 73 36.88"><defs><style>.cls-1{fill:#426573;}.cls-2{fill:#ea503f;}.cls-3{fill:#f7bbbb;}</style></defs><title>saturday</title><path class="cls-1" d="M4.61,13.46s-1.25-.94-.78-3.72S7.3,6.4,8,6.37a14.6,14.6,0,0,1,1.62,0,3.62,3.62,0,0,1,2.53-4.16C15.36,1.18,18.24,4,18.24,4a6.2,6.2,0,0,1,3.46-.66,3,3,0,0,1,2.5,1.35A4.67,4.67,0,0,1,26.83,3c1.53-.22,3.59,1.5,3.59,1.5A4.52,4.52,0,0,1,34,3.12a3.78,3.78,0,0,1,2.85,2,7.54,7.54,0,0,1,3.72-1.35,4.68,4.68,0,0,1,3.09,1.6,5.27,5.27,0,0,1,2.44-1.22,6.48,6.48,0,0,1,3.47.53A4.46,4.46,0,0,1,52.74,3.4,4.94,4.94,0,0,1,55.8,5.12a3.42,3.42,0,0,1,2.87-1.91,4,4,0,0,1,3.57,1.56s2.71-1,3.87,1.06a5.8,5.8,0,0,1,.94,3.44s2.56.85,2.72,2.94a4.1,4.1,0,0,1-.88,3.12s2.6.79,2,3.29-1.56,2.78-1.56,2.78,1.94,1.59.13,4.12-2.94,1.81-2.94,1.81A4.15,4.15,0,0,1,64.3,31.4,3.62,3.62,0,0,1,59.83,31,6.84,6.84,0,0,1,56,32.46,4.63,4.63,0,0,1,52.3,31a6.82,6.82,0,0,1-4.63,1.19c-2.78-.28-3.18-1.53-3.18-1.53s-.6,1.18-3.13,1.06-3.19-1.34-3.19-1.34a2.59,2.59,0,0,1-1.93,1.37,3.25,3.25,0,0,1-2.63-.44s-1,2.16-4.31,1.63-2.91-2-2.91-2A4.31,4.31,0,0,1,23,32.37c-2.19-.07-2.5-.41-2.5-.41s.09,1.72-3.35,2.66-4.28-.94-4.28-.94-1.65,1.5-4.59-.31-1.38-4-1.38-4A3.07,3.07,0,0,1,3,28C1.49,25.55,3.64,21,3.64,21A5.51,5.51,0,0,1,2,17.77C1.83,15.9,3.27,13.8,4.61,13.46Z"/><path class="cls-2" d="M6,9.21C6.82,8.09,9.27,8,9.27,8s.4,1,.53,1.06a7.64,7.64,0,0,0,1.69-1.43c0-.16-1.22-3.07,1.5-3.63s4,.75,3.9,1.38-.25,1.28-.12,1.46,1.56.66,1.68.41.19-1.56.88-1.94a4.62,4.62,0,0,1,3.16,0A1.91,1.91,0,0,1,23.58,7c0,.25,0,.91.25,1s1.59.25,1.59-.28,0-2.44,1.63-2.85,2.4,1.41,2.47,1.88,0,.69.28.81.87.22.9,0S31,5.43,32.58,5a2.41,2.41,0,0,1,3,1.44c.06.65.09,1.72.37,1.93s1.28.35,1.35.19.53-2.44,2.25-2.81a2.89,2.89,0,0,1,3.31,1.62c.22.82.12,1.38.5,1.54s1.09,0,1.09-.13A2.39,2.39,0,0,1,45.8,6.21c1.62-.72,2.72-.13,2.81.09s.28,1.66.78,1.85a.76.76,0,0,0,.94-.38c0-.15.91-2.4,2.41-2.53S55,6.71,55.27,7.18s.62,1.09,1,.81S57,5.12,58.89,5s2.63,2.28,3,2.34,1-.93,1.85-.87a2.9,2.9,0,0,1,1.9,2.44c-.09.78-.47,1-.25,1.59a1.28,1.28,0,0,0,1,.72c.16.06,1.6.28,1.6,1.69s-1.1,2.18-1.07,2.84S69,16.65,69,18,67.27,20.37,67.27,21s1.34,1.35,1.15,2.47a3.06,3.06,0,0,1-1.72,2.06c-.4.16-1.53-.43-2-.09s1.18,3.37-.91,4.34-3.56-1.09-4-1.06-1.53,2-4.19,1.91-2.62-1.91-3.06-2-1.38,2.18-3.81,1.93-2.63-2-3.1-2.25a.9.9,0,0,0-1.15.16A2.31,2.31,0,0,1,42,29.62a3.26,3.26,0,0,1-2.69-1.29c-.31-.21-.63-.46-.91-.28a9,9,0,0,1-2,1.6,2,2,0,0,1-2-.28c-.53-.32-.9-.57-1.12-.44A3,3,0,0,1,31,30.77c-1.88.31-2.28-.12-2.88-.59s-.65-.75-.9-.85A2.68,2.68,0,0,0,26,29.15c-.35.09-.72,1.37-2.6,1.4A4.46,4.46,0,0,1,20.61,30c-.22-.16-.16-.47-.66-.41s-.53.63-.75,1.38a2.22,2.22,0,0,1-1.84,1.94,4.62,4.62,0,0,1-2.75,0c-.66-.25-1-1.13-1.22-1.29a.86.86,0,0,0-.81,0A2.33,2.33,0,0,1,9.3,32c-2.1-1.25-.52-2.84-.54-3.26s-.52-1.44-1-1.36-2.21,1.42-3.25-.18.2-5.36.85-5.84a1.26,1.26,0,0,0,.42-1.64c-.27-.27-2.21-.46-1.84-2.27s2.52-3,3-3.36a1.35,1.35,0,0,0,.44-1.46c-.19-.18-1.79-.08-1.87-1.2A2.64,2.64,0,0,1,6,9.21Z"/><path class="cls-3" d="M14.38,17.37c-2-1.61-2.29-3-1.73-4.53a3.11,3.11,0,0,1,3.31-2,3.27,3.27,0,0,1,2.15.94c.29.08.4,0,.58-.23s.69-.94-.35-2a5.13,5.13,0,0,0-4.85-.75,5.56,5.56,0,0,0-2.75,8.09c1.06,1.68,4.37,3.48,5.62,5.1s.35,4-.83,4.08-3.75-.27-4.4-1.12a1.41,1.41,0,0,1,.25-1.88c.23-.23,0-1.77-.75-1.83s-2.06,1-1.94,3.06,1,3.11,4.77,3.71,5.25-1.21,5.21-4.48S16.4,19,14.38,17.37ZM20.69,13a36.33,36.33,0,0,0-3,5.5,4.42,4.42,0,0,0,1,1.5,12.17,12.17,0,0,0,1.09-1.66,9,9,0,0,1,2,.14c.1.06,1.33,5.44,1.5,5.77s1.6-.27,1.81-.62-2.92-10.13-3-10.54S21,12.87,20.69,13Zm.67,3.79a5.1,5.1,0,0,1-1-.08c-.15,0,.56-1.35.71-1.33A3.17,3.17,0,0,1,21.36,16.82Zm8.71-6c.21-.1.14-1.31.06-1.56s-8.22.25-8.46.25-.25,1.83-.08,1.92,3.33-.3,3.46-.21.79,9.29.89,9.44a2.55,2.55,0,0,0,1.59-.25c.16-.23-.5-9.17-.48-9.25S29.86,10.89,30.07,10.78Zm3.54,5.38c0,.12.4,2.87-.29,4s-1.65.89-2.08.2S31,15.8,31,15.62a2.49,2.49,0,0,0-1.67-.21c-.29.39-.54,5.39,1.08,6.89s4,.09,4.71-1.12.48-4.52.38-4.88S33.65,16,33.61,16.16ZM44,21.89c-.45-.46-2.35-3.38-2.35-3.38A7.33,7.33,0,0,0,44,15.07c.81-2.33.14-4.45-2.34-5.27s-3.41.29-3.64.42a3.15,3.15,0,0,0-1,1.17c-.07.23.77.77.77.85s-.17,9.54,0,9.94,1.66.16,1.85,0a17.06,17.06,0,0,0,0-3.13,1.6,1.6,0,0,1,.37.17c.28.14,1.23,2.16,2.28,3.71s2,1.12,2.37,1,.92-.56.9-.81S44.42,22.34,44,21.89ZM39.78,17a45.74,45.74,0,0,1-.13-5.61c.32-.23,3.09-.52,2.88,1.86A5,5,0,0,1,39.78,17Zm10.64-2.69c-.87-1.83-4.15-1.48-4.5-1.39s-.54.7-.6,1.22-.08,6.11,0,6.55a.9.9,0,0,0,.71.7c.35.13,1.75-.1,3.35-1.5A4.72,4.72,0,0,0,50.42,14.26Zm-3.23,5.19a21.76,21.76,0,0,1,.07-4.9,1.65,1.65,0,0,1,2,1.77A4,4,0,0,1,47.19,19.45Zm7.88-5.69c-.77-.31-1.13.33-1.36.67s-3.12,7.46-3.1,7.6,1.15,1.13,1.42,1a23,23,0,0,0,1.35-3.08,9.09,9.09,0,0,1,1.88,0c.08,0,.66,3,.77,3.29s1.35-.08,1.64-.69-1-5.17-1.39-6.73S55.84,14.07,55.07,13.76Zm0,4.42c-.09.1-.9-.06-1-.13s.48-1.54.66-1.5S55.11,18.07,55,18.18Zm6.6-7.27c-.1.1-1.19,5.21-1.19,5.43s-.81-.37-1.77-2-2.16-3.85-2.27-3.93S55,10.67,55,11a10.16,10.16,0,0,0,1.7,3.5c1.4,2.17,3.07,4.36,3.07,4.48s-1.23,6.4-1.17,6.54,1.71.29,1.9,0,2.85-14.23,2.85-14.31A5,5,0,0,0,61.63,10.91Z"/><path class="cls-1" d="M50.42,10.28c-.21-.23-1.06.1-1.06.19a13.6,13.6,0,0,0,1.29,1.94c.15.06.63-.19.69-.27s0-.21-.27-.55S50.63,10.51,50.42,10.28Zm1.21-.08c-.1-.08-.37.1-.37.1a14.06,14.06,0,0,0,.56,1.42,3.08,3.08,0,0,0,.81-.1A7,7,0,0,0,51.63,10.2ZM26.3,24.7a8.3,8.3,0,0,0,1.35,2,1.11,1.11,0,0,0,1-.31c.09-.19-1.29-1.75-1.52-2S26.52,24.57,26.3,24.7Zm4.29.44a7.93,7.93,0,0,1-1.15-1.23,1.35,1.35,0,0,0-.77.21c-.1.2,0,.93.82,1.52a3.4,3.4,0,0,0,1.83.62c.17,0,.25-.19.25-.39S31.32,25.7,30.59,25.14Z"/><path class="cls-1" d="M14.65,6.09c0-.08-.14-.37-.83-.37a2.4,2.4,0,0,0-1.31.56c-.19.09.16.63.39.75s0,0,.54-.25a5.3,5.3,0,0,1,1.09-.35A1.41,1.41,0,0,0,14.65,6.09ZM22.4,7.82c0-.1-.1-.45-.94-.75a5.2,5.2,0,0,0-1.77-.31c-.23.08-.37,1-.25,1.11s.36-.09,1.17-.07A2.83,2.83,0,0,1,22,8.26C22.13,8.3,22.36,7.93,22.4,7.82ZM27.9,6.3c-.27,0-1.1.92-1.33.69,0,0,.48.77.64.79a8.51,8.51,0,0,0,1.4-.56c.08,0,.38-.21.38-.44S28.17,6.26,27.9,6.3Zm5.69.27a2.74,2.74,0,0,0-1.42.23c-.25.15,0,1,0,1s.29-.06.77-.2a7.16,7.16,0,0,1,1.25-.21s.27-.34.27-.46S34.24,6.62,33.59,6.57Zm8.15,1.34c0-.17-.59-.52-1.36-.57a2.42,2.42,0,0,0-1.31.25s.12.61.25.67.17,0,.81-.06a5.42,5.42,0,0,1,1.29.08C41.76,8.3,41.74,8.07,41.74,7.91Zm6.35-.42c0-.19-.19-.42-1.1-.4a2.18,2.18,0,0,0-1.36.38,1.7,1.7,0,0,0,.17.92c.1.1.08,0,.77-.23a4.09,4.09,0,0,1,1.31-.25C48.21,7.89,48.09,7.68,48.09,7.49Zm4.65-.65a2.75,2.75,0,0,0-1.34.44l.17.56a5.35,5.35,0,0,0,.79-.14,2.71,2.71,0,0,1,1,0c.25,0,.31-.17.4-.38S53.44,6.82,52.74,6.84Zm8.12.59c.1-.17-.65-.61-1.46-.69a1.92,1.92,0,0,0-1.31.15c-.23.14,0,.7.23.81s.37,0,1.27,0S60.76,7.59,60.86,7.43ZM15.59,30.72a7.92,7.92,0,0,1-.85-.38c-.11,0-.59.82-.55,1s.48.23,1.17.29A4.19,4.19,0,0,0,17,31.47c.2-.1.18-.23.12-.46S16.05,30.87,15.59,30.72Zm7.87-2.42c-.75,0-1-.51-1.41-.37-.19.06-.06.89-.06.89s.27.23,1.29.23a4.13,4.13,0,0,0,2-.39.59.59,0,0,0,0-.67C25.09,27.8,24.21,28.3,23.46,28.3Zm7,.52c-.62-.06-.75-.35-1.16-.35-.19,0-.38.81-.34.94s.42.23,1.13.25a3.47,3.47,0,0,0,1.48-.21.74.74,0,0,0,0-.65C31.46,28.68,31.05,28.89,30.42,28.82Zm5.27-.89c-.56-.13-.91-.71-1-.73s-.46,1-.46,1.1.11.19,1,.42a2.65,2.65,0,0,0,1.8-.15c.22-.1.06-.45,0-.54S36.26,28.05,35.69,27.93Zm6.48,0c-.41-.19-1-.87-1.12-.77a1.31,1.31,0,0,0-.42.79c0,.19.21.46,1.21.6a2.23,2.23,0,0,0,1.67-.27c.08-.08,0-.33,0-.33A3,3,0,0,1,42.17,28Zm6.63.23c-.61-.27-.71-.71-.92-.71s-.42.69-.37.81.14.54,1.14.73a2.48,2.48,0,0,0,1.79-.19c.27-.14.19-.33.19-.43S49.4,28.47,48.8,28.2Zm8.6.52a9.14,9.14,0,0,1-1.31,0c-.48-.1-.4-.71-.4-.71s-.76-.33-.85-.25-.15,1.25,1,1.63a1.36,1.36,0,0,0,1.66-.36C57.69,28.91,57.55,28.78,57.4,28.72Zm5.86-.79c0-.13-.82,0-1.3-.09s-.94-.43-1.12-.37c-.56.19-.06,1.15.77,1.31a1.76,1.76,0,0,0,1.46-.25C63.34,28.39,63.28,28.05,63.26,27.93Z"/></svg>