<svg id="Layer_1" data-name="Layer 1" xmlns="http://www.w3.org/2000/svg" width="69.48" height="31.24" viewBox="0 0 69.48 31.24"><defs><style>.cls-1{fill:#426573;}.cls-2{fill:#89d1ee;}</style></defs><title>wednesday</title><path class="cls-1" d="M4.07,13.53a3.16,3.16,0,0,1-2-2.56A3.54,3.54,0,0,1,4.35,6.9a3.87,3.87,0,0,1,3,.44s.5-1.73,3.16-2.17,3.28.47,3.28.47a3.67,3.67,0,0,1,2.89-2.19c2.26-.39,4.08,1.83,4.08,1.83A2.77,2.77,0,0,1,23.21,3.5a4.34,4.34,0,0,1,3.22,1,3.32,3.32,0,0,1,3.09-1.39,3.81,3.81,0,0,1,2.86,1.49,3.74,3.74,0,0,1,2.83-2.5,5,5,0,0,1,3.86,1.4A3.71,3.71,0,0,1,42.74,2c2.56.35,2.33,2,2.33,2a4.89,4.89,0,0,1,3.44-1.36c2.11,0,2.68,1.15,2.68,1.15a6.54,6.54,0,0,1,3.64-1.21c1.8.12,2.77,2.12,2.77,2.12s3.73-1.83,5.84.16.78,4.92.78,4.92,2.61.61,3,2.5a5.25,5.25,0,0,1-.8,3.65s1.63,2,.8,3.74a6.88,6.88,0,0,1-2.12,2.55,4.06,4.06,0,0,1-3.77,4.28c-4,.36-5-1.35-5-1.35A5.94,5.94,0,0,1,53,27.2a6.51,6.51,0,0,1-3.5-.7A4.87,4.87,0,0,1,46.33,28a4,4,0,0,1-2.89-.86,4.08,4.08,0,0,1-3.86,1.41,4.79,4.79,0,0,1-3.14-1.67A4.09,4.09,0,0,1,32.8,29a4.26,4.26,0,0,1-3.47-1.7,4.33,4.33,0,0,1-3.61,1.08,7.1,7.1,0,0,1-2.93-.89,4.69,4.69,0,0,1-3.19,1.58,4.45,4.45,0,0,1-3.36-1.18s-1.73,1.69-3.52,1.27a3.7,3.7,0,0,1-2.37-1.44,3.92,3.92,0,0,1-4.72-.55,5.4,5.4,0,0,1-1.69-5.93,2.17,2.17,0,0,1,.72-.92A5.13,5.13,0,0,1,3,17.4,6,6,0,0,1,4.07,13.53Z"/><path class="cls-2" d="M3.72,9.54A2.12,2.12,0,0,1,6.38,8.45c.88.48.92,1,1.2,1.16a1.39,1.39,0,0,0,.8-.08,2.75,2.75,0,0,1,1.91-2.6c1.93-.59,2.51-.18,2.7,0a5.83,5.83,0,0,0,1,.88c.2.07,1-.08,1.06-.25s.12-2.46,2-2.66,2.74,2.14,3,2.33a1.71,1.71,0,0,0,.93.22,3.15,3.15,0,0,1,1.72-2.1,2.89,2.89,0,0,1,2.33,0,8.45,8.45,0,0,0,.91,1.69,3.8,3.8,0,0,0,1,.23S27.37,5,28.87,4.76s2.64,1.49,2.87,1.71a1.46,1.46,0,0,0,.81.36,3.63,3.63,0,0,0,1.17-1.19c.29-.47.85-1.78,1.94-2s2,.79,2.49,1.5.89.86,1.07.61.94-2.14,2.71-2.21A2,2,0,0,1,44,5.25a2,2,0,0,0,.2.73c.11.13,1,.31,1.22,0A3,3,0,0,1,48,4.18c1.76-.09,2.23.25,2.23.25a5.08,5.08,0,0,0-.14,1.33c.08.33,1.11,1.08,1.11,1.08a2.72,2.72,0,0,1,1.63-2.36,3.65,3.65,0,0,1,3.29.63c.18.26-.06.86,0,1s.78,1.19,1.06,1.14S59.55,5,61.44,5.61,63.15,7.93,62.83,9s-.64,1.44-.25,1.78,2.64.75,3.07,1.67-.38,2.72-.38,2.72-1.14-.22-1.36,0a1.6,1.6,0,0,0-.4,1.32c.11.5.68.63.93.77a1.4,1.4,0,0,1,1,1.56A2.77,2.77,0,0,1,65,20.4a3.16,3.16,0,0,0-1.35.3A1.53,1.53,0,0,0,63.05,22a6.74,6.74,0,0,0,.13.83s-.35,1.85-3,1.78-3.14-1.78-3.58-1.9-1.12-.21-1.2.06-.72,2.25-2.47,2.61S50.47,25,50.47,25s0-.7-.43-.92A2.07,2.07,0,0,0,48.85,24a2.73,2.73,0,0,1-1.72,1.76,2.56,2.56,0,0,1-2.42,0s-.59-.87-.64-.9-1.13-.14-1.14,0A3.42,3.42,0,0,1,40,26.75a3.29,3.29,0,0,1-2.79-1.5C37,25,36.3,24.7,36,24.9s-.8,1.19-1,1.32-1.49,1.39-3,.76a3.61,3.61,0,0,1-1.9-1.87,2,2,0,0,0-.91-.07,4.37,4.37,0,0,1-3,1.77,4.09,4.09,0,0,1-3-1.47,1.88,1.88,0,0,0-1,.11,5,5,0,0,1-2.3,1.84,3.05,3.05,0,0,1-3-1c-.29-.38-.39-.63-.5-.69s-.78-.11-.82,0-1.25,1.93-2.52,1.9-1.95-1.4-2.39-1.43-2.81,1.09-4.34-.33-1-4-.07-4.44,1.42-.86,1.22-1.47-2-.19-2.48-1.31-.75-3.31.67-4,1.14-.87,1-1.36S6,12.36,5.4,12.25,2.87,11.65,3.72,9.54Z"/><path class="cls-1" d="M53.16,7.36c-.08-.1-.87,0-.87.2a6.52,6.52,0,0,0,.83,1.83c.15.15.48-.17.56-.33A6.1,6.1,0,0,0,53.16,7.36ZM50.49,8.67a10.15,10.15,0,0,0,1.06,1.8c.14.09.64-.18.72-.32a7.49,7.49,0,0,0-.86-1.92C51.3,8.15,50.61,8.51,50.49,8.67ZM33.9,21a14.32,14.32,0,0,0,1.39,2.2c.08.08.64-.17.7-.34a12.83,12.83,0,0,0-1.39-2.16A1,1,0,0,0,33.9,21Zm-1.64,1.22c0,.11,1.48,1.8,1.54,1.87s.55-.11.63-.25A12.76,12.76,0,0,0,33,21.45C32.87,21.29,32.2,22,32.26,22.17Z"/><path class="cls-1" d="M11.83,8.59c0-.12-.23-.26-.79-.23A3.31,3.31,0,0,0,9.69,9c-.14.08.16.78.28.85s.38-.21.83-.47a2.09,2.09,0,0,1,.85-.31C11.72,9.06,11.83,8.72,11.83,8.59Zm6.36-1a.66.66,0,0,0-.42-.43,6.45,6.45,0,0,0-1.4.14c-.15.07,0,.82.07.83s1.61-.26,1.71-.28S18.19,7.7,18.19,7.58Zm4-.32c-.12,0,0,.82.14.88s.35-.05.72-.19a2.59,2.59,0,0,1,.85-.08c.18,0,.09-.65-.05-.79S22.33,7.2,22.16,7.26Zm6.13-.81a2.05,2.05,0,0,0,.09.91c.08.15.27,0,.81,0s1.07-.11,1.07-.11.26-.6,0-.75A6.79,6.79,0,0,0,28.29,6.45Zm7.54-.81c-.54,0-.65.17-.95.17a1.47,1.47,0,0,0,.08.78c.09.08.19,0,.69-.11s.7,0,.89-.08.17-.25.17-.36S36.38,5.67,35.83,5.64Zm5.27-.42a2.71,2.71,0,0,0-.94.2c-.09,0,0,.56,0,.59A3,3,0,0,0,41,5.9c.33-.06,1,0,1.19,0s0-.38,0-.49S41.51,5.22,41.1,5.22Zm6.48.25a1.63,1.63,0,0,0-.95.23c-.11.08-.05.69,0,.73s.22,0,.79-.12.72-.06.94-.14.16-.5.14-.64S48.13,5.45,47.58,5.47Zm5.29.28a1,1,0,0,0-.07.78,6.2,6.2,0,0,0,1.71-.31c.18-.08.12-.46,0-.61A2,2,0,0,0,52.87,5.75ZM61.3,21a4.63,4.63,0,0,1-1.42.56,7.62,7.62,0,0,1-1.33.07c-.11,0,0,.84.1.93s.75.22,1.82-.25,1.18-1,1.21-1.12S61.47,21,61.3,21Zm-8,.94c-.13,0-.64.51-1.14.58a2.44,2.44,0,0,1-1-.16c-.12,0-.4.72-.29.89s.59.39,1.39.19a2,2,0,0,0,1.25-1.11A.37.37,0,0,0,53.29,21.92Zm-5.46,1.64a8.18,8.18,0,0,1-1,.44c-.39.06-.94-.45-1-.42s-.44.92-.27,1.1.63.29,1.39.18A1.61,1.61,0,0,0,48.18,24C48.21,23.75,47.94,23.56,47.83,23.56Zm-8.48,1.2a3.22,3.22,0,0,1-1.23-.4c-.13,0-.16.7,0,.87s.32.3,1.27.28A2.62,2.62,0,0,0,41,24.89s0-.33-.11-.41S40,24.78,39.35,24.76Zm-6.66.36c-.47,0-.81-.36-1-.37,0,0-.39.67-.31.81s.38.31,1,.41a1.27,1.27,0,0,0,1.07-.27.69.69,0,0,0,0-.55C33.43,25,33.16,25.17,32.69,25.12Zm-5-1.42c-.15-.08-.92.34-1.61.34s-1-.36-1.29-.36-.39.69-.27.85.6.44,1.72.34a2.2,2.2,0,0,0,1.7-.92C28,23.87,27.85,23.78,27.69,23.7Zm-8.43,1.23c-.39,0-.76-.28-.85-.28s-.34.64-.33.8.29.23,1.18.23A2.19,2.19,0,0,0,20.8,25c.07-.07,0-.32-.08-.45S19.65,24.92,19.26,24.93Zm-5.61-.18c-.11,0-.68.29-1.05.29s-.54-.29-.66-.29-.48.65-.45.75.17.31.94.37a2.06,2.06,0,0,0,1.5-.62C14,25.12,13.76,24.78,13.65,24.75Z"/><path class="cls-1" d="M60.29,10.25a4.32,4.32,0,0,0-1.77-.16c-.05.09-.81,3.13-.81,3.24S55.22,10.67,55,10.48s-1.46.77-1.4.95,3.59,4.18,3.59,4.18,0,.18-.28,1a36.33,36.33,0,0,0-1.16,4.46c.1.28,1.44.32,1.58.23s.61-1.16,1.53-4.22A38.36,38.36,0,0,0,60.29,10.25ZM52.13,13.5C52,13.72,49,20.93,49,21.15a6.1,6.1,0,0,0,1.81.74c.31-.05,1.17-2.83,1.2-3s1.18-.38,1.25-.36.55,1.56.71,1.69,1.28-.43,1.4-.77a40,40,0,0,0-1.48-6.19A2.85,2.85,0,0,0,52.13,13.5Zm1.11,3.31a8.23,8.23,0,0,1-.92.23c.1,0,.53-1.93.64-1.87A6.79,6.79,0,0,1,53.24,16.81Zm-3.11-.27a5.82,5.82,0,0,0-.33-5c-.83-1.63-3.92-.73-4-.58a50.09,50.09,0,0,0,.49,8c.22.33,1.14.05,1.68-.09A3.51,3.51,0,0,0,50.13,16.54Zm-2.58.6a48.26,48.26,0,0,1-.17-4.94,1,1,0,0,1,1.38.72,4.33,4.33,0,0,1,0,3.05C48.3,16.92,47.62,17.29,47.55,17.14ZM42.16,11c-.39-1-.09-1.64.52-1.7a2.5,2.5,0,0,1,1.22.34c.11,0,.75-.31.53-1.36s-1.6-1.17-2.33-1C40.74,7.53,39.85,9,40.22,11s1.71,3.1,2.6,4.39.84,2.14.12,4-2.72,1.28-2.82,1.3a8.2,8.2,0,0,0-.25,1.95c0,.08.35.17,1.09.16a4.36,4.36,0,0,0,3.7-2c1-1.75.92-3.33.24-5.5S42.55,12.06,42.16,11Zm-1.54,7.25a14.37,14.37,0,0,0-2.18-.06,9.36,9.36,0,0,1-.14-1.42,14.49,14.49,0,0,1,1.46-.16,5.65,5.65,0,0,0,0-1.53c0-.16-1.44-.05-1.5-.05s-.11-1.84-.12-1.92A8.4,8.4,0,0,1,39.65,13a3.8,3.8,0,0,0,.06-1.53,22.35,22.35,0,0,0-3.34.05c-.32,0-.27,1-.13,2.39s.14,6.39.45,6.5a23.82,23.82,0,0,0,3.89-.86A4.59,4.59,0,0,0,40.62,18.26Zm-7.69-9c-.08.25.33,6.11.29,6.21s-2.71-3.66-3-3.91-.73.33-.84.53.18,8.74.28,8.88a3.25,3.25,0,0,0,1.72-.07c.11-.18-.34-4.81-.2-4.81a36.15,36.15,0,0,1,2.19,3.25c0,.13,1.46.24,1.59-.11s-.06-9.83-.11-10.09S33,9,32.93,9.29Zm-6.91,1A6.73,6.73,0,0,0,23.6,11c-.13.21.16,8.93.2,9.63s.32,1,.57,1.12a3.37,3.37,0,0,0,3.21-1.34c1.1-1.55,1.05-3.62.91-6.31S27,10.26,26,10.33Zm.74,7.57c-.3,1.22-.54,1.57-.72,1.68s-.46.32-.5.2-.33-7.45-.24-7.58,1.17-.45,1.41,1A14.6,14.6,0,0,1,26.76,17.9Zm-6.07-2.4S20.57,13,20.58,13s1.25-.08,1.38-.24a3.37,3.37,0,0,0,.08-1.3c-.05-.28-3-.36-3.24-.09-.09.11-.06,11.16,0,11.24a14.2,14.2,0,0,0,2.92,0c.18-.12.22-1.28.19-1.51s-1.26-.43-1.31-.47.05-3.22.05-3.3,1.32,0,1.4-.11a4.8,4.8,0,0,0,.38-1.44C22.35,15.56,20.69,15.5,20.69,15.5ZM15.9,10c-.07.11-.13,7.56-.16,7.64S14.12,15.81,14,15.73a1.09,1.09,0,0,0-.79.17c-.14.14-1.31,3-1.42,3.07s-1.29-7.11-1.36-7.46-1.61.26-1.76.49,2.11,11,2.19,11.15,1.06-.12,1.31-.23,1.59-4.41,1.79-4.5,2.22,3.25,2.29,3.31a1.24,1.24,0,0,0,1.11-.42c.31-.44.2-11.25.1-11.53S16,9.89,15.9,10Z"/></svg>