<svg id="Layer_1" data-name="Layer 1" xmlns="http://www.w3.org/2000/svg" width="65.61" height="31.09" viewBox="0 0 65.61 31.09"><defs><style>.cls-1{fill:#426573;}.cls-2{fill:#7abe78;}.cls-3{fill:#d2e2a1;}</style></defs><title>thursday</title><path class="cls-1" d="M5.79,6.84s.62-2.46,2.34-3,3.59,1.37,3.59,1.37A4.11,4.11,0,0,1,15.6,2.72a5,5,0,0,1,3.94,2.41,3.1,3.1,0,0,1,2.81-1.47c1.91.12,2.91,2.25,2.91,2.25S25.63,4.41,28,4A3.17,3.17,0,0,1,31.35,5.5,3.32,3.32,0,0,1,34,3.19a2.5,2.5,0,0,1,2.6,1.34S38.1,1.94,40.63,2A4,4,0,0,1,44.1,4.28a3.89,3.89,0,0,1,2.44-.72,3.74,3.74,0,0,1,1.9,1.28,4.35,4.35,0,0,1,2.44-1.12,4.72,4.72,0,0,1,2.63,1.16s3.15-1.79,5.9-.35a2.88,2.88,0,0,1,1.28,4.06s2.66.41,2.66,2.82-1.13,3-1.13,3a2.94,2.94,0,0,1,1.38,3c-.13,2.31-.91,3.09-.91,3.09s1.57,2.78-.68,4.63a4.86,4.86,0,0,1-4.5,1A3.57,3.57,0,0,1,54,27.88c-2.63-.13-3.38-1.44-3.38-1.44s-.75.87-3,.84-2.41-.78-2.41-.78-.68,1.75-3.34,1.63-3-.91-3-.91a5.4,5.4,0,0,1-4.09.78,5.61,5.61,0,0,1-2.47-1.19,4.28,4.28,0,0,1-3.07.47,7.65,7.65,0,0,1-2.53-1.19,3.77,3.77,0,0,1-3.31,1.72,5.9,5.9,0,0,1-4-1.62,3.09,3.09,0,0,1-2.62,1.44c-2,.15-2.25-.54-2.25-.54S11.76,30.38,9,28.53s-2.5-2.94-2.5-2.94-1.5,0-2.62-2.37A3.73,3.73,0,0,1,4.72,19a3.25,3.25,0,0,1-2.59-2.62,3.21,3.21,0,0,1,1.72-3.44s-2.59-1.44-1.63-4A3.17,3.17,0,0,1,5.79,6.84Z"/><path class="cls-2" d="M8.52,5.5a2.37,2.37,0,0,1,2.25.69c.34.25,1,.94,1.42.61s.82-2,2.92-2.46,3.38,1.74,3.47,2,.5,1,.82,1S20.71,5,22.27,5.06s1.88,2.71,2.27,2.88a1.34,1.34,0,0,0,1.29-.39c.24-.3.53-1.61,1.85-2S29.86,6.78,30.46,7s1.47.36,1.69-.06.43-1.63,1.54-2,1.82.75,2.14,1.18,1.14.91,1.38.55.83-2.5,2.56-2.95a2.6,2.6,0,0,1,2.91,1.28c.14.31.29,1.4.83,1.42s1.23-1.31,2.42-1.22S47.19,7,47.51,7.17s1.43.24,1.59-.22.76-1.43,1.67-1.43,1.56,1.68,2,1.9,1.14.1,1.25-.12a2.85,2.85,0,0,1,5.09-.1,2.07,2.07,0,0,1,0,1,1.44,1.44,0,0,0-.47,1.05.84.84,0,0,0,.68,1c.25.05,2.2-.17,2.18,1.6a3.38,3.38,0,0,1-1.61,2.67c-.23.31-.57,1,.11,1.17s1.75.12,1.8,1.73-.2,2-.61,2.25-.84.75-.53,1a2.16,2.16,0,0,1,.28,2.83,2.52,2.52,0,0,1-2.37,1.14c-.14-.1-.22-.58-.61-.71s-1.1,1.3-2.75,1.71a4.9,4.9,0,0,1-2.94.09c-.28-.17-.5-1.61-.84-1.72s-.63-.19-1.39.49a3.07,3.07,0,0,1-3,.81c-1.74-.25-2-.83-2.33-.74s-1,1.61-3.06,1.66-2.1-1.11-2.72-1.05-1.74,1.1-3.14,1a3.35,3.35,0,0,1-2.3-.9,10.06,10.06,0,0,0-.59-1.07.57.57,0,0,0-.85,0,2.43,2.43,0,0,1-2.61,1.33c-1.57-.39-1.53-1.74-2-2a1.73,1.73,0,0,0-1.8.4c-.58.52-.42,2.1-2.42,2.13s-2.41-.83-2.82-1.5-.29-.84-.67-.94-1,.31-1.58.88-.75,1-1.51,1.11-1.55-1.08-2-1.19a.91.91,0,0,0-.75.15,3.29,3.29,0,0,1-3,2.52c-2.44.11-2.59-1.83-2.58-1.89s.88-1,.72-1.41a1.58,1.58,0,0,0-.95-.67,1.78,1.78,0,0,1-2,.6c-1.4-.44-1.48-2.32-.59-3.36s1.62-1.27,1.56-2-.72-.89-1.09-1-1.63-.29-1.78-1.36A2.21,2.21,0,0,1,6,13.69c1.09-.17,1.2-.86.87-1.36s-2-.2-2.72-.67S3.22,9,4.18,8.5s1.43-.28,1.73-.06.83.37.89.22S6.85,5.86,8.52,5.5Z"/><path class="cls-3" d="M12.82,11.17a37.59,37.59,0,0,1,3.75-.56,4.12,4.12,0,0,0,.09-1.33c-.05-.12-1.45-.17-4.39.19a16.48,16.48,0,0,0-5,1.19,4,4,0,0,0,.39,1.5c.1.08.32-.08.94-.27a22.34,22.34,0,0,1,2.45-.53c.1,0,.69,10.94.8,11a4.84,4.84,0,0,0,1.7-.19c.08-.09.05-.62-.15-3.18S12.77,11.36,12.82,11.17Zm7.79,1c-.1.14.13,3.05.13,3.13s-.22.05-1,.23a13.2,13.2,0,0,0-1.93.72A32.72,32.72,0,0,0,17.36,13a4.42,4.42,0,0,0-1.59.16c-.12.16.75,8.89.8,9a6.07,6.07,0,0,0,1.56-.2A34.51,34.51,0,0,0,17.9,18s.67-.3,1.21-.52a9.88,9.88,0,0,1,1.49-.39s.26,4.33.39,4.55,1.31,0,1.47-.3-.16-9.23-.19-9.34A3.91,3.91,0,0,0,20.61,12.2Zm7.36.89c-.07.19,0,4.57-.09,5.47s-1.09.78-1.44.43-.34-6-.37-6.13a3.82,3.82,0,0,0-1.47,0c-.09.16-.45,6.77.55,7.94a2.63,2.63,0,0,0,4-.47c.74-1.25.61-6.73.55-7A2.51,2.51,0,0,0,28,13.09Zm5.33,2.22c-.09.25.85,3.85,1.94,4.6s1.89-.27,2-1.07-.84-.68-.84-.68a2.48,2.48,0,0,1-.27-.27c-.17-.2-.92-1.89-.92-1.89a6.85,6.85,0,0,0,1.6-2.61A3.08,3.08,0,0,0,35.16,9.3c-1.69-.63-4.15,1.29-4.23,1.44s-.16,9.65-.1,9.89,1.28.12,1.57-.25,0-.91,0-1.77.23-7.23.25-7.3a2.65,2.65,0,0,1,1-.4c.54-.11,1.66.11,1.63,1.76S33.4,15.06,33.3,15.31Zm8.17,0c-1.51-1.25-1.75-1.69-1.42-3a4,4,0,0,1,1.8-2.12c.11-.13-.55-.78-1-1a2.17,2.17,0,0,0-1.82.64,4.1,4.1,0,0,0-1,3.44c.26,1.55,1.18,2.14,2.39,3.13s1,2,.65,3.51-2.11,1.94-3.26,2a5.84,5.84,0,0,1-2.16-.38A7.09,7.09,0,0,0,35,22.7a1.25,1.25,0,0,0,.64.63c.53.28,1.81.59,4.22-.11s2.72-2,3-3.77A3.72,3.72,0,0,0,41.47,15.3Zm6-4.11c-1.13-.88-3.5-.35-3.63-.2S44,19,44,19a6.25,6.25,0,0,0,1.6.28c.6,0,1.36-.76,2.63-2.78A4.19,4.19,0,0,0,47.51,11.19Zm-.58,4.5c-.49,1-1.35,1.84-1.46,1.72s-.09-5,0-5.05,1.28-.44,1.58.56A3.47,3.47,0,0,1,46.93,15.69Zm5.08.12c-.32-1-.9-1.18-1.27-1.06s-.84,1-1,1.24S47,20.4,47,20.59s.92.93,1.21.68a15.38,15.38,0,0,0,1.21-1.69,8.17,8.17,0,0,1,1.65.16A16,16,0,0,0,52,21.5c.26.34,1.23-.08,1.43-.36s0-.08-.29-1.12S52.32,16.83,52,15.81Zm-1,2.44c-.16.09-.94.11-1-.08a4,4,0,0,1,.77-1.37C50.85,16.8,51.16,18.16,51,18.25Zm4.51-7.86c-.09.14-.11,4.74-.11,4.74s-.55.06-1.25-1-2.09-3.47-2.22-3.61-1.26.44-1.39.59a17.9,17.9,0,0,0,2.21,4.29c1.28,1.86,2.07,1.53,2.1,1.57s-.53,4.16-.48,4.39,1.31.32,1.61.25.36-.71.69-3.26.58-7.72.58-7.86A3.61,3.61,0,0,0,55.52,10.39Z"/><path class="cls-1" d="M10.13,8a.41.41,0,0,0,.25-.48c0-.24-.89-.39-1.45-.25a1.45,1.45,0,0,0-1,.69s.2.48.31.53.31-.21.75-.41S10,8.08,10.13,8Zm5-1.54a2.29,2.29,0,0,0-1.25.68c-.07.14.19.41.29.47s.71-.28,1-.37a8.67,8.67,0,0,1,1.08-.14c.19,0,.22-.3.2-.44S15.74,6.38,15.11,6.49Zm7.82,1.2c.15,0,.12-.27.09-.38A1.2,1.2,0,0,0,22.08,7a2.94,2.94,0,0,0-1,.22c-.11,0-.05.61,0,.64a2.82,2.82,0,0,0,.9-.12A3,3,0,0,1,22.93,7.69ZM29,8c.14,0,.11-.31.1-.45s-.58-.36-1-.36a3.23,3.23,0,0,0-1,.31c-.09.1,0,.56.26.58A1.87,1.87,0,0,0,28,8C28.27,8,28.83,8.06,29,8Zm6.35-.62c.19-.07.12-.27.11-.44s-.57-.25-1.14-.25a1.92,1.92,0,0,0-1.11.34c-.08.14.26.47.43.49a4.88,4.88,0,0,0,.61-.08C34.52,7.44,35.13,7.47,35.32,7.41Zm6-1.11c0-.27-.8-.81-1.28-.91a2.4,2.4,0,0,0-1.33.39c-.05.06.08.74.36.75A3.72,3.72,0,0,0,40,6.3c.39-.1.84.44,1.09.42S41.32,6.56,41.35,6.3Zm3.91.25a2.53,2.53,0,0,0-1.5.42,1.15,1.15,0,0,0,.28.67c.15.14.28,0,.67-.11s.75-.15,1-.25S45.65,6.66,45.26,6.55ZM10.58,25.22c-.42,0-.82-.21-.92-.19s-.4.52-.34.66,0,.08.62.2a2,2,0,0,0,1.1,0,1.07,1.07,0,0,0,.23-.53C11.29,25.25,11,25.24,10.58,25.22Zm12.58-.67A2.6,2.6,0,0,1,22,24.16c-.12,0-.12.73-.11.89s.19.11,1,.17A2.5,2.5,0,0,0,24.4,25a.89.89,0,0,0-.07-.61C24.27,24.36,23.76,24.53,23.16,24.55Zm6.72-1c-.55-.12-.66-.36-.86-.36s-.34.6-.3.74.08.08.8.23a2.33,2.33,0,0,0,1.25,0c.08,0,.11-.2,0-.46S30.43,23.69,29.88,23.56ZM35,24.66c-.52-.13-.69-.39-.84-.39s-.21.59-.13.73.25.19.92.36a1.67,1.67,0,0,0,1.16-.11,4.82,4.82,0,0,0-.05-.48C36,24.63,35.51,24.78,35,24.66Zm6.59-.27a4.31,4.31,0,0,1-1.06,0c-.09,0,0,.55.13.64s.4.11,1.06,0a3,3,0,0,0,1.14-.3,1,1,0,0,0-.06-.51C42.74,24.14,42.38,24.33,41.58,24.39Zm6-.48a6,6,0,0,1-1.24-.22c-.12,0-.15.59-.06.75s.47.15,1.22.15a3.44,3.44,0,0,0,1.4-.21.84.84,0,0,0-.07-.58A8.46,8.46,0,0,0,47.54,23.91Zm8.2-.3c-.05-.06-.89.17-1.47.16s-.91-.27-1.11-.22-.09.86,0,1,.44.09,1.14.07A2.48,2.48,0,0,0,55.85,24,.48.48,0,0,0,55.74,23.61Z"/></svg>