<svg id="Layer_1" data-name="Layer 1" xmlns="http://www.w3.org/2000/svg" width="67.78" height="30.65" viewBox="0 0 67.78 30.65"><defs><style>.cls-1{fill:#426573;}.cls-2{fill:#f18749;}.cls-3{fill:#fcedae;}</style></defs><title>tuesday</title><path class="cls-1" d="M5.9,20.36S3,19.67,2.76,17.86a3.76,3.76,0,0,1,1-3.06A3,3,0,0,1,2,12.5c-.25-1.72.81-3.62,1.64-3.94a7.43,7.43,0,0,1,2.17-.29A4,4,0,0,1,7.69,4.92c1.92-1.18,4-.59,4.67.74A3.46,3.46,0,0,1,15.3,3.08,3,3,0,0,1,18.61,5,3.46,3.46,0,0,1,21.83,3.2c2.41,0,2.83,1.69,2.83,1.69a4.6,4.6,0,0,1,3.5-1.83,3.39,3.39,0,0,1,3.44,1.6s.48-1.53,3-1.66S38,4.19,38,4.19a3.87,3.87,0,0,1,2.48-1.52,5.41,5.41,0,0,1,2.88.91,3.37,3.37,0,0,1,3-1.58,5,5,0,0,1,3.61,1.86A7.75,7.75,0,0,1,54.11,2a2.11,2.11,0,0,1,2.3,2s2.13-1.85,4.33-1.05,3.52,1.87,3.42,2.92-.69,1.25-.69,1.25a3,3,0,0,1,2.29,2.67,5.52,5.52,0,0,1-.88,3.66,3.72,3.72,0,0,1,.55,3.14A3.51,3.51,0,0,1,64,18.77s1.56,2.39.22,4.29A3,3,0,0,1,61,24.41s-1.09,2.5-4.64,2.09-3.07-1.44-3.07-1.44a3,3,0,0,1-2.91.66c-1.77-.53-1.78-1.08-1.78-1.08a4.24,4.24,0,0,1-2.92,1.91C43.46,27,42.57,26,42.57,26a3.84,3.84,0,0,1-3.17,1.69,6.19,6.19,0,0,1-3.94-.78,4.76,4.76,0,0,1-3.53,1.73,3.09,3.09,0,0,1-3.42-1.55s-1.75,1.44-3.33.83a4.25,4.25,0,0,1-2.07-1.4,3.78,3.78,0,0,1-3.89.93,8.27,8.27,0,0,1-3-1.61,3.9,3.9,0,0,1-3.32,1.75,3.33,3.33,0,0,1-2.75-1.47A3.57,3.57,0,0,1,6.13,25C4.49,22.94,5.9,20.36,5.9,20.36Z"/><path class="cls-2" d="M4.46,17.36c-.23-.57.65-1.58,1-1.95s.49-.36.53-.52a1.33,1.33,0,0,0-.26-.72,2.55,2.55,0,0,1-2-1.11C3.08,12,3.47,10,4.85,9.72A9,9,0,0,1,7,9.69a1.16,1.16,0,0,0,.28-.5,2.29,2.29,0,0,1,.8-2.52c1.36-1.18,2.41-1,2.83-.73a3.35,3.35,0,0,1,.72,1c.06.08,1.42.5,1.51.35s.17-1.91,1.6-2.6a1.89,1.89,0,0,1,2.48.93c.08.26.33,1,.33,1a16.53,16.53,0,0,0,1.69-.09,2.88,2.88,0,0,1,2.51-1.95C23.58,4.56,24,6.42,24,6.63s.09.32.2.4.75.11.8,0a3.69,3.69,0,0,1,2.64-2.43c2.08-.53,3.4,2,3.47,2a5.74,5.74,0,0,0,.7-.11,3.27,3.27,0,0,1,2.76-2.11c2.07-.1,2.91,1.74,3.15,1.86a1.06,1.06,0,0,0,.67.13s.72-1.72,1.86-2.14,2.32,1.75,2.62,1.9.81.16.92,0,.52-2.31,2.24-2.38S48.68,5.83,48.93,6a2,2,0,0,0,.89.17,5.29,5.29,0,0,1,2.67-2.35A1.82,1.82,0,0,1,55,5.22a1.39,1.39,0,0,0,.25.81,1.32,1.32,0,0,0,.72.08C56,6.05,58.35,4,60.57,4.61S62.18,6.61,62,7,61.3,8,61.9,8.3s2.36.39,2.2,2.28-.7,2-.92,2.11-1.08.2-1.17.44-.11.81.06.95,1.83.48,1.59,1.94-2.2,2-2.2,2.42,0,.72.19.86,1.64,1.17,1.15,2.33-2.14,1-2.42,1.2a3.77,3.77,0,0,1-3.09,1.69c-2.22.07-2.47-.39-2.52-.55s0-1-.05-1.08a2.42,2.42,0,0,0-1-.5A2.92,2.92,0,0,1,51.63,24a2.45,2.45,0,0,1-2.25-1.13,2.6,2.6,0,0,0-1.61,0,4.17,4.17,0,0,1-2.22,1.92c-1.47.41-2.5-1.12-3.12-1.12s-.71.61-1,.93a3.72,3.72,0,0,1-2.81,1.46c-1.83.17-2.41-1.22-3-1.31s-1.16.31-1.74,1-.8,1.3-2.22,1.25-2-1.55-2.36-1.64-1.72.76-2.68.87a2.07,2.07,0,0,1-2.13-.92c-.55-.73-.42-.86-.95-1s-1.38,1.15-2.41,1.46a3,3,0,0,1-2.9-.31c-1.1-.69-1.24-.87-1.72-.89S16,24.58,15,25s-1.15,1-2.34.83-1.31-1.26-1.45-1.45-.63-.41-.78-.33a1.76,1.76,0,0,1-2.5,0,3.07,3.07,0,0,1-.38-3.27c.22-.5.74-1.2.24-1.5S5.35,19.55,4.46,17.36Z"/><path class="cls-3" d="M13.33,11.75s-.11-.19,1.33-.3,2.91-.06,3-.14a2.59,2.59,0,0,0,.07-1.26c-.08-.21-2.4-.31-5.1-.05a18.56,18.56,0,0,0-4.34.86c-.24.11-.08,1.28,0,1.42s.25,0,.89-.08a20.31,20.31,0,0,1,2.3-.32c.18.07,1.15,8.73,1.34,8.9a3,3,0,0,0,1.64-.2c.2-.14.33-.49,0-1.75S13.33,11.75,13.33,11.75ZM22,13.42a4.18,4.18,0,0,0,0,.82,7.33,7.33,0,0,1-.53,3.43,1.68,1.68,0,0,1-2.83.16c-.79-1-.92-4.09-1-4.22a3.16,3.16,0,0,0-1.36.06,8,8,0,0,0,.13,2.78c.2,1.11.95,3.75,2.85,4a3.58,3.58,0,0,0,4-2.54,9.57,9.57,0,0,0,.2-4.55A3.6,3.6,0,0,0,22,13.42Zm5.41,5.85a35.57,35.57,0,0,1-.27-3.8c.06-.09,2.2-.39,2.28-.44a2.94,2.94,0,0,0,.14-1c0-.11-2.51-.11-2.57-.19s-.32-3-.29-3.13,3.5,0,3.6-.06a3.11,3.11,0,0,0,0-1.48,24.28,24.28,0,0,0-5.25,0c-.14.09.59,11.69.72,11.84a42.05,42.05,0,0,0,5.12-.28A3.57,3.57,0,0,0,31,19.14C30.91,18.89,27.49,19.27,27.43,19.27Zm6.81-5.43a1.44,1.44,0,0,1-.06-2.59,8.23,8.23,0,0,1,2.29-.64c.38-.17.77-.91-.28-1.3a4.37,4.37,0,0,0-3.86.72,3.3,3.3,0,0,0,.78,5.35,4.47,4.47,0,0,1,3,2.34c.88,1.47-.53,3.45-2,3.56s-1.74-.62-2-.34-.56,1.59-.22,1.81a4.21,4.21,0,0,0,3.86-.06,4.44,4.44,0,0,0,2.48-5.17C37.72,15,35,14.2,34.24,13.84Zm10.52-4.1a8.32,8.32,0,0,0-4.63-.1c-.14.27,0,8.44.14,9.39s.53,1.44,2.14,1.24a7.5,7.5,0,0,0,5.16-5.38A4.46,4.46,0,0,0,44.76,9.74Zm-.61,7.68c-.69.6-1.77,1.16-2.1.91s-.5-7-.34-7.17,3.67-.28,4,2.18A4.07,4.07,0,0,1,44.15,17.42Zm5.36-5.37a82.25,82.25,0,0,0-2.82,8c0,.19,1.35.46,1.5.32A18.72,18.72,0,0,0,48.86,18c0-.08,2.16-.7,2.25-.72s.86,1.6,1.1,1.66.78-.28,1-.56-1.64-5-2.07-5.5S49.79,11.91,49.51,12.05Zm-.21,3.89c-.18,0,.52-1.81.66-1.81a4.08,4.08,0,0,1,.73,1.4A8,8,0,0,1,49.3,15.94ZM57,10a28.34,28.34,0,0,0-.59,2.92c0,.26-3.64-3.71-4-3.82s-1.15,1-1.13,1.13S55.85,15,55.9,15.09s-1.32,5.11-1.16,5.47,1.36.41,1.66.19,2.48-10.42,2.48-10.55A5.4,5.4,0,0,0,57,10Z"/><path class="cls-1" d="M15.24,6.78a1.63,1.63,0,0,0-.88.47c0,.06.3.49.36.5a3.06,3.06,0,0,0,.71-.23,6.78,6.78,0,0,1,1-.13c.06,0,.06-.15,0-.31S15.71,6.7,15.24,6.78ZM20.77,7a5.07,5.07,0,0,0-1.05.26c-.07,0,.19.72.27.75s.31-.14.77-.33,1-.33,1.06-.45S21.15,7,20.77,7Zm6,.1a7.3,7.3,0,0,0,1-.17,2.94,2.94,0,0,1,.92.14c.19,0,.24-.23.27-.37s-.56-.6-1.19-.55a4.75,4.75,0,0,0-1.31.27C26.36,6.45,26.65,7.08,26.8,7.09Zm8.05-1.21a2.11,2.11,0,0,0-1.39.82c-.08.19.34.46.55.41a4.26,4.26,0,0,1,1-.42,3.27,3.27,0,0,1,1.12.17.53.53,0,0,0,.3-.36C36.49,6.34,35.58,5.83,34.85,5.88Zm5.62-.1a1,1,0,0,0-.92.58c-.06.06.24.39.39.38a4,4,0,0,1,.82-.29c.39,0,.84.18,1,.13s.14-.19.14-.34S41.24,5.7,40.47,5.78Zm5.07,1.31c-.13,0-.68.43-.69.54a20.32,20.32,0,0,0,1.72,1.65S47,9,47,8.88A10.07,10.07,0,0,0,45.54,7.09Zm1.62-1.35a2.65,2.65,0,0,0-.89.54A22,22,0,0,0,48,8.55s.67-.14.71-.3A11.35,11.35,0,0,0,47.16,5.74Zm5.08-.47a1.31,1.31,0,0,0-.84.65s.28.47.43.46.36-.33.75-.39a11.34,11.34,0,0,1,1.22.1c.11,0,0-.21-.08-.48S52.74,5.14,52.24,5.27Zm6.11.48A2.2,2.2,0,0,0,57,6.41c-.06.06.41.64.55.62s.36-.31.82-.42,1,.23,1.1.22.2-.19.25-.36S59.16,5.7,58.35,5.75Zm.75,15.74c-.11,0-.56.76-1.45.93a1.65,1.65,0,0,1-1.46-.61c-.12,0-.31.71-.25.82a2.79,2.79,0,0,0,1.88.59,2.49,2.49,0,0,0,1.69-1A1.37,1.37,0,0,0,59.1,21.49Zm-7.7.29c-.71,0-1.07-.7-1.11-.72s-.3.69-.32.78.29.33,1,.55a2.34,2.34,0,0,0,1.59-.14.93.93,0,0,0,0-.44C52.57,21.7,52.1,21.77,51.4,21.78Zm-5.83.41c-.13,0-.64.33-.94.34s-.68-.29-.77-.29-.43.42-.4.5a1.86,1.86,0,0,0,1.19.46,1.27,1.27,0,0,0,1.21-.64C45.93,22.44,45.69,22.19,45.57,22.19Zm-7.13,1.59a1.85,1.85,0,0,1-1.2-.34c-.09-.05-.31.47-.3.56s.24.41,1.36.56a2.19,2.19,0,0,0,1.86-.64c.06,0-.06-.4-.17-.47A15.28,15.28,0,0,1,38.44,23.78ZM28.18,22.41c-.05.06,1.39,2.18,1.45,2.25a1.59,1.59,0,0,0,.8-.13,14.78,14.78,0,0,0-1.08-2.42C29.15,21.88,28.21,22.36,28.18,22.41Zm-1.77,0s1.25,2.29,1.3,2.33a2.1,2.1,0,0,0,.95-.19,18.37,18.37,0,0,0-1.48-2.28C27.1,22.22,26.61,22.36,26.41,22.45ZM20,23.55a1.38,1.38,0,0,1-1-.36c-.13-.08-.41.55-.38.67s.06.45,1,.63a2,2,0,0,0,1.67-.43c.11-.09,0-.56-.09-.67S20.58,23.49,20,23.55Zm-5.39-.25c-.12,0-.84.5-1.37.39s-.74-.81-.86-.86-.55.47-.55.56a1.32,1.32,0,0,0,1.22,1.1,2,2,0,0,0,1.86-.9A.46.46,0,0,0,14.63,23.3Z"/></svg>